<?xml version="1.0" encoding="UTF-8"?>
<svg id="_레이어_1" data-name="레이어 1" xmlns="http://www.w3.org/2000/svg" viewBox="0 0 1235.19 21.66">
  <defs>
    <style>
      .cls-1 {
        fill: #d9d9d9;
      }
    </style>
  </defs>
  <circle class="cls-1" cx="1.93" cy="17.01" r="1.5"/>
  <circle class="cls-1" cx="11.56" cy="17.01" r="1.5"/>
  <circle class="cls-1" cx="6.75" cy="20.01" r="1.5"/>
  <circle class="cls-1" cx="16.37" cy="20.01" r="1.5"/>
  <circle class="cls-1" cx="1.93" cy="11.59" r="1.5"/>
  <circle class="cls-1" cx="11.56" cy="11.59" r="1.5"/>
  <circle class="cls-1" cx="6.75" cy="14.6" r="1.5"/>
  <circle class="cls-1" cx="16.37" cy="14.6" r="1.5"/>
  <circle class="cls-1" cx="1.93" cy="6.78" r="1.5"/>
  <circle class="cls-1" cx="11.56" cy="6.78" r="1.5"/>
  <circle class="cls-1" cx="1.93" cy="1.36" r="1.5"/>
  <circle class="cls-1" cx="11.56" cy="1.36" r="1.5"/>
  <circle class="cls-1" cx="6.75" cy="9.79" r="1.5"/>
  <circle class="cls-1" cx="16.37" cy="9.79" r="1.5"/>
  <circle class="cls-1" cx="6.75" cy="4.37" r="1.5"/>
  <circle class="cls-1" cx="16.37" cy="4.37" r="1.5"/>
  <circle class="cls-1" cx="32.62" cy="17.01" r="1.5"/>
  <circle class="cls-1" cx="42.25" cy="17.01" r="1.5"/>
  <circle class="cls-1" cx="37.43" cy="20.01" r="1.5"/>
  <circle class="cls-1" cx="47.06" cy="20.01" r="1.5"/>
  <circle class="cls-1" cx="32.62" cy="11.59" r="1.5"/>
  <circle class="cls-1" cx="42.25" cy="11.59" r="1.5"/>
  <circle class="cls-1" cx="37.43" cy="14.6" r="1.5"/>
  <circle class="cls-1" cx="47.06" cy="14.6" r="1.5"/>
  <circle class="cls-1" cx="32.62" cy="6.78" r="1.5"/>
  <circle class="cls-1" cx="42.25" cy="6.78" r="1.5"/>
  <circle class="cls-1" cx="32.62" cy="1.36" r="1.5"/>
  <circle class="cls-1" cx="42.25" cy="1.36" r="1.5"/>
  <circle class="cls-1" cx="37.43" cy="9.79" r="1.5"/>
  <circle class="cls-1" cx="47.06" cy="9.79" r="1.5"/>
  <circle class="cls-1" cx="37.43" cy="4.37" r="1.5"/>
  <circle class="cls-1" cx="47.06" cy="4.37" r="1.5"/>
  <circle class="cls-1" cx="63.31" cy="17.01" r="1.5"/>
  <circle class="cls-1" cx="72.93" cy="17.01" r="1.5"/>
  <circle class="cls-1" cx="68.12" cy="20.01" r="1.5"/>
  <circle class="cls-1" cx="77.75" cy="20.01" r="1.5"/>
  <circle class="cls-1" cx="63.31" cy="11.59" r="1.5"/>
  <circle class="cls-1" cx="72.93" cy="11.59" r="1.5"/>
  <circle class="cls-1" cx="68.12" cy="14.6" r="1.5"/>
  <circle class="cls-1" cx="77.75" cy="14.6" r="1.5"/>
  <circle class="cls-1" cx="63.31" cy="6.78" r="1.5"/>
  <circle class="cls-1" cx="72.93" cy="6.78" r="1.5"/>
  <circle class="cls-1" cx="63.31" cy="1.36" r="1.5"/>
  <circle class="cls-1" cx="72.93" cy="1.36" r="1.5"/>
  <circle class="cls-1" cx="68.12" cy="9.79" r="1.5"/>
  <circle class="cls-1" cx="77.75" cy="9.79" r="1.5"/>
  <circle class="cls-1" cx="68.12" cy="4.37" r="1.5"/>
  <circle class="cls-1" cx="77.75" cy="4.37" r="1.5"/>
  <circle class="cls-1" cx="93.99" cy="17.01" r="1.5"/>
  <circle class="cls-1" cx="103.62" cy="17.01" r="1.5"/>
  <circle class="cls-1" cx="98.81" cy="20.01" r="1.5"/>
  <circle class="cls-1" cx="108.43" cy="20.01" r="1.5"/>
  <circle class="cls-1" cx="93.99" cy="11.59" r="1.5"/>
  <circle class="cls-1" cx="103.62" cy="11.59" r="1.5"/>
  <circle class="cls-1" cx="98.81" cy="14.6" r="1.5"/>
  <circle class="cls-1" cx="108.43" cy="14.6" r="1.5"/>
  <circle class="cls-1" cx="93.99" cy="6.78" r="1.5"/>
  <circle class="cls-1" cx="103.62" cy="6.78" r="1.5"/>
  <circle class="cls-1" cx="93.99" cy="1.36" r="1.5"/>
  <circle class="cls-1" cx="103.62" cy="1.36" r="1.5"/>
  <circle class="cls-1" cx="98.81" cy="9.79" r="1.5"/>
  <circle class="cls-1" cx="108.43" cy="9.79" r="1.5"/>
  <circle class="cls-1" cx="98.81" cy="4.37" r="1.5"/>
  <circle class="cls-1" cx="108.43" cy="4.37" r="1.5"/>
  <circle class="cls-1" cx="124.68" cy="17.01" r="1.5"/>
  <circle class="cls-1" cx="134.31" cy="17.01" r="1.5"/>
  <circle class="cls-1" cx="129.49" cy="20.01" r="1.5"/>
  <circle class="cls-1" cx="139.12" cy="20.01" r="1.5"/>
  <circle class="cls-1" cx="124.68" cy="11.59" r="1.5"/>
  <circle class="cls-1" cx="134.31" cy="11.59" r="1.5"/>
  <circle class="cls-1" cx="129.49" cy="14.6" r="1.5"/>
  <circle class="cls-1" cx="139.12" cy="14.6" r="1.5"/>
  <circle class="cls-1" cx="124.68" cy="6.78" r="1.5"/>
  <circle class="cls-1" cx="134.31" cy="6.78" r="1.5"/>
  <circle class="cls-1" cx="124.68" cy="1.36" r="1.5"/>
  <circle class="cls-1" cx="134.31" cy="1.36" r="1.5"/>
  <circle class="cls-1" cx="129.49" cy="9.79" r="1.5"/>
  <circle class="cls-1" cx="139.12" cy="9.79" r="1.5"/>
  <circle class="cls-1" cx="129.49" cy="4.37" r="1.5"/>
  <circle class="cls-1" cx="139.12" cy="4.37" r="1.5"/>
  <circle class="cls-1" cx="155.36" cy="17.01" r="1.5"/>
  <circle class="cls-1" cx="164.99" cy="17.01" r="1.5"/>
  <circle class="cls-1" cx="160.18" cy="20.01" r="1.5"/>
  <circle class="cls-1" cx="169.81" cy="20.01" r="1.5"/>
  <circle class="cls-1" cx="155.36" cy="11.59" r="1.5"/>
  <circle class="cls-1" cx="164.99" cy="11.59" r="1.5"/>
  <circle class="cls-1" cx="160.18" cy="14.6" r="1.5"/>
  <circle class="cls-1" cx="169.81" cy="14.6" r="1.5"/>
  <circle class="cls-1" cx="155.36" cy="6.78" r="1.5"/>
  <circle class="cls-1" cx="164.99" cy="6.78" r="1.5"/>
  <circle class="cls-1" cx="155.36" cy="1.36" r="1.5"/>
  <circle class="cls-1" cx="164.99" cy="1.36" r="1.5"/>
  <circle class="cls-1" cx="160.18" cy="9.79" r="1.5"/>
  <circle class="cls-1" cx="169.81" cy="9.79" r="1.5"/>
  <circle class="cls-1" cx="160.18" cy="4.37" r="1.5"/>
  <circle class="cls-1" cx="169.81" cy="4.37" r="1.5"/>
  <circle class="cls-1" cx="186.05" cy="17.01" r="1.5"/>
  <circle class="cls-1" cx="195.68" cy="17.01" r="1.5"/>
  <circle class="cls-1" cx="190.86" cy="20.01" r="1.5"/>
  <circle class="cls-1" cx="200.49" cy="20.01" r="1.5"/>
  <circle class="cls-1" cx="186.05" cy="11.59" r="1.5"/>
  <circle class="cls-1" cx="195.68" cy="11.59" r="1.5"/>
  <circle class="cls-1" cx="190.86" cy="14.6" r="1.5"/>
  <circle class="cls-1" cx="200.49" cy="14.6" r="1.5"/>
  <circle class="cls-1" cx="186.05" cy="6.78" r="1.5"/>
  <circle class="cls-1" cx="195.68" cy="6.78" r="1.5"/>
  <circle class="cls-1" cx="186.05" cy="1.36" r="1.5"/>
  <circle class="cls-1" cx="195.68" cy="1.36" r="1.5"/>
  <circle class="cls-1" cx="190.86" cy="9.79" r="1.5"/>
  <circle class="cls-1" cx="200.49" cy="9.79" r="1.5"/>
  <circle class="cls-1" cx="190.86" cy="4.37" r="1.5"/>
  <circle class="cls-1" cx="200.49" cy="4.37" r="1.5"/>
  <circle class="cls-1" cx="216.74" cy="17.01" r="1.5"/>
  <circle class="cls-1" cx="226.36" cy="17.01" r="1.5"/>
  <circle class="cls-1" cx="221.55" cy="20.01" r="1.5"/>
  <circle class="cls-1" cx="231.18" cy="20.01" r="1.5"/>
  <circle class="cls-1" cx="216.74" cy="11.59" r="1.5"/>
  <circle class="cls-1" cx="226.36" cy="11.59" r="1.5"/>
  <circle class="cls-1" cx="221.55" cy="14.6" r="1.5"/>
  <circle class="cls-1" cx="231.18" cy="14.6" r="1.5"/>
  <circle class="cls-1" cx="216.74" cy="6.78" r="1.5"/>
  <circle class="cls-1" cx="226.36" cy="6.78" r="1.5"/>
  <circle class="cls-1" cx="216.74" cy="1.36" r="1.5"/>
  <circle class="cls-1" cx="226.36" cy="1.36" r="1.5"/>
  <circle class="cls-1" cx="221.55" cy="9.79" r="1.5"/>
  <circle class="cls-1" cx="231.18" cy="9.79" r="1.5"/>
  <circle class="cls-1" cx="221.55" cy="4.37" r="1.5"/>
  <circle class="cls-1" cx="231.18" cy="4.37" r="1.5"/>
  <circle class="cls-1" cx="247.42" cy="17.01" r="1.5"/>
  <circle class="cls-1" cx="257.05" cy="17.01" r="1.5"/>
  <circle class="cls-1" cx="252.24" cy="20.01" r="1.5"/>
  <circle class="cls-1" cx="261.86" cy="20.01" r="1.5"/>
  <circle class="cls-1" cx="247.42" cy="11.59" r="1.5"/>
  <circle class="cls-1" cx="257.05" cy="11.59" r="1.5"/>
  <circle class="cls-1" cx="252.24" cy="14.6" r="1.5"/>
  <circle class="cls-1" cx="261.86" cy="14.6" r="1.5"/>
  <circle class="cls-1" cx="247.42" cy="6.78" r="1.5"/>
  <circle class="cls-1" cx="257.05" cy="6.78" r="1.5"/>
  <circle class="cls-1" cx="247.42" cy="1.36" r="1.5"/>
  <circle class="cls-1" cx="257.05" cy="1.36" r="1.5"/>
  <circle class="cls-1" cx="252.24" cy="9.79" r="1.5"/>
  <circle class="cls-1" cx="261.86" cy="9.79" r="1.5"/>
  <circle class="cls-1" cx="252.24" cy="4.37" r="1.5"/>
  <circle class="cls-1" cx="261.86" cy="4.37" r="1.5"/>
  <circle class="cls-1" cx="278.11" cy="17.01" r="1.5"/>
  <circle class="cls-1" cx="287.74" cy="17.01" r="1.5"/>
  <circle class="cls-1" cx="282.92" cy="20.01" r="1.5"/>
  <circle class="cls-1" cx="292.55" cy="20.01" r="1.5"/>
  <circle class="cls-1" cx="278.11" cy="11.59" r="1.5"/>
  <circle class="cls-1" cx="287.74" cy="11.59" r="1.5"/>
  <circle class="cls-1" cx="282.92" cy="14.6" r="1.5"/>
  <circle class="cls-1" cx="292.55" cy="14.6" r="1.5"/>
  <circle class="cls-1" cx="278.11" cy="6.78" r="1.5"/>
  <circle class="cls-1" cx="287.74" cy="6.78" r="1.5"/>
  <circle class="cls-1" cx="278.11" cy="1.36" r="1.5"/>
  <circle class="cls-1" cx="287.74" cy="1.36" r="1.5"/>
  <circle class="cls-1" cx="282.92" cy="9.79" r="1.5"/>
  <circle class="cls-1" cx="292.55" cy="9.79" r="1.5"/>
  <circle class="cls-1" cx="282.92" cy="4.37" r="1.5"/>
  <circle class="cls-1" cx="292.55" cy="4.37" r="1.5"/>
  <circle class="cls-1" cx="308.8" cy="17.01" r="1.5"/>
  <circle class="cls-1" cx="318.42" cy="17.01" r="1.5"/>
  <circle class="cls-1" cx="313.61" cy="20.01" r="1.5"/>
  <circle class="cls-1" cx="323.24" cy="20.01" r="1.5"/>
  <circle class="cls-1" cx="308.8" cy="11.59" r="1.5"/>
  <circle class="cls-1" cx="318.42" cy="11.59" r="1.5"/>
  <circle class="cls-1" cx="313.61" cy="14.6" r="1.5"/>
  <circle class="cls-1" cx="323.24" cy="14.6" r="1.5"/>
  <circle class="cls-1" cx="308.8" cy="6.78" r="1.5"/>
  <circle class="cls-1" cx="318.42" cy="6.78" r="1.5"/>
  <circle class="cls-1" cx="308.8" cy="1.36" r="1.5"/>
  <circle class="cls-1" cx="318.42" cy="1.36" r="1.5"/>
  <circle class="cls-1" cx="313.61" cy="9.79" r="1.5"/>
  <circle class="cls-1" cx="323.24" cy="9.79" r="1.5"/>
  <circle class="cls-1" cx="313.61" cy="4.37" r="1.5"/>
  <circle class="cls-1" cx="323.24" cy="4.37" r="1.5"/>
  <circle class="cls-1" cx="339.48" cy="17.01" r="1.5"/>
  <circle class="cls-1" cx="349.11" cy="17.01" r="1.5"/>
  <circle class="cls-1" cx="344.3" cy="20.01" r="1.5"/>
  <circle class="cls-1" cx="353.92" cy="20.01" r="1.5"/>
  <circle class="cls-1" cx="339.48" cy="11.59" r="1.5"/>
  <circle class="cls-1" cx="349.11" cy="11.59" r="1.5"/>
  <circle class="cls-1" cx="344.3" cy="14.6" r="1.5"/>
  <circle class="cls-1" cx="353.92" cy="14.6" r="1.5"/>
  <circle class="cls-1" cx="339.48" cy="6.78" r="1.5"/>
  <circle class="cls-1" cx="349.11" cy="6.78" r="1.5"/>
  <circle class="cls-1" cx="339.48" cy="1.36" r="1.5"/>
  <circle class="cls-1" cx="349.11" cy="1.36" r="1.5"/>
  <circle class="cls-1" cx="344.3" cy="9.79" r="1.5"/>
  <circle class="cls-1" cx="353.92" cy="9.79" r="1.5"/>
  <circle class="cls-1" cx="344.3" cy="4.37" r="1.5"/>
  <circle class="cls-1" cx="353.92" cy="4.37" r="1.5"/>
  <circle class="cls-1" cx="366.93" cy="17.01" r="1.5"/>
  <circle class="cls-1" cx="376.56" cy="17.01" r="1.5"/>
  <circle class="cls-1" cx="371.75" cy="20.01" r="1.5"/>
  <circle class="cls-1" cx="381.37" cy="20.01" r="1.5"/>
  <circle class="cls-1" cx="366.93" cy="11.59" r="1.5"/>
  <circle class="cls-1" cx="376.56" cy="11.59" r="1.5"/>
  <circle class="cls-1" cx="371.75" cy="14.6" r="1.5"/>
  <circle class="cls-1" cx="381.37" cy="14.6" r="1.5"/>
  <circle class="cls-1" cx="366.93" cy="6.78" r="1.5"/>
  <circle class="cls-1" cx="376.56" cy="6.78" r="1.5"/>
  <circle class="cls-1" cx="366.93" cy="1.36" r="1.5"/>
  <circle class="cls-1" cx="376.56" cy="1.36" r="1.5"/>
  <circle class="cls-1" cx="371.75" cy="9.79" r="1.5"/>
  <circle class="cls-1" cx="381.37" cy="9.79" r="1.5"/>
  <circle class="cls-1" cx="371.75" cy="4.37" r="1.5"/>
  <circle class="cls-1" cx="381.37" cy="4.37" r="1.5"/>
  <circle class="cls-1" cx="397.62" cy="17.01" r="1.5"/>
  <circle class="cls-1" cx="407.25" cy="17.01" r="1.5"/>
  <circle class="cls-1" cx="402.43" cy="20.01" r="1.5"/>
  <circle class="cls-1" cx="412.06" cy="20.01" r="1.5"/>
  <circle class="cls-1" cx="397.62" cy="11.59" r="1.5"/>
  <circle class="cls-1" cx="407.25" cy="11.59" r="1.5"/>
  <circle class="cls-1" cx="402.43" cy="14.6" r="1.5"/>
  <circle class="cls-1" cx="412.06" cy="14.6" r="1.5"/>
  <circle class="cls-1" cx="397.62" cy="6.78" r="1.5"/>
  <circle class="cls-1" cx="407.25" cy="6.78" r="1.5"/>
  <circle class="cls-1" cx="397.62" cy="1.36" r="1.5"/>
  <circle class="cls-1" cx="407.25" cy="1.36" r="1.5"/>
  <circle class="cls-1" cx="402.43" cy="9.79" r="1.5"/>
  <circle class="cls-1" cx="412.06" cy="9.79" r="1.5"/>
  <circle class="cls-1" cx="402.43" cy="4.37" r="1.5"/>
  <circle class="cls-1" cx="412.06" cy="4.37" r="1.5"/>
  <circle class="cls-1" cx="428.31" cy="17.01" r="1.5"/>
  <circle class="cls-1" cx="437.93" cy="17.01" r="1.5"/>
  <circle class="cls-1" cx="433.12" cy="20.01" r="1.5"/>
  <circle class="cls-1" cx="442.75" cy="20.01" r="1.5"/>
  <circle class="cls-1" cx="428.31" cy="11.59" r="1.5"/>
  <circle class="cls-1" cx="437.93" cy="11.59" r="1.5"/>
  <circle class="cls-1" cx="433.12" cy="14.6" r="1.5"/>
  <circle class="cls-1" cx="442.75" cy="14.6" r="1.5"/>
  <circle class="cls-1" cx="428.31" cy="6.78" r="1.5"/>
  <circle class="cls-1" cx="437.93" cy="6.78" r="1.5"/>
  <circle class="cls-1" cx="428.31" cy="1.36" r="1.5"/>
  <circle class="cls-1" cx="437.93" cy="1.36" r="1.5"/>
  <circle class="cls-1" cx="433.12" cy="9.79" r="1.5"/>
  <circle class="cls-1" cx="442.75" cy="9.79" r="1.5"/>
  <circle class="cls-1" cx="433.12" cy="4.37" r="1.5"/>
  <circle class="cls-1" cx="442.75" cy="4.37" r="1.5"/>
  <circle class="cls-1" cx="458.99" cy="17.01" r="1.5"/>
  <circle class="cls-1" cx="468.62" cy="17.01" r="1.5"/>
  <circle class="cls-1" cx="463.81" cy="20.01" r="1.5"/>
  <circle class="cls-1" cx="473.43" cy="20.01" r="1.5"/>
  <circle class="cls-1" cx="458.99" cy="11.59" r="1.5"/>
  <circle class="cls-1" cx="468.62" cy="11.59" r="1.5"/>
  <circle class="cls-1" cx="463.81" cy="14.6" r="1.5"/>
  <circle class="cls-1" cx="473.43" cy="14.6" r="1.5"/>
  <circle class="cls-1" cx="458.99" cy="6.78" r="1.5"/>
  <circle class="cls-1" cx="468.62" cy="6.78" r="1.5"/>
  <circle class="cls-1" cx="458.99" cy="1.36" r="1.5"/>
  <circle class="cls-1" cx="468.62" cy="1.36" r="1.5"/>
  <circle class="cls-1" cx="463.81" cy="9.79" r="1.5"/>
  <circle class="cls-1" cx="473.43" cy="9.79" r="1.5"/>
  <circle class="cls-1" cx="463.81" cy="4.37" r="1.5"/>
  <circle class="cls-1" cx="473.43" cy="4.37" r="1.5"/>
  <circle class="cls-1" cx="489.68" cy="17.01" r="1.5"/>
  <circle class="cls-1" cx="499.31" cy="17.01" r="1.5"/>
  <circle class="cls-1" cx="494.49" cy="20.01" r="1.5"/>
  <circle class="cls-1" cx="504.12" cy="20.01" r="1.5"/>
  <circle class="cls-1" cx="489.68" cy="11.59" r="1.5"/>
  <circle class="cls-1" cx="499.31" cy="11.59" r="1.5"/>
  <circle class="cls-1" cx="494.49" cy="14.6" r="1.5"/>
  <circle class="cls-1" cx="504.12" cy="14.6" r="1.5"/>
  <circle class="cls-1" cx="489.68" cy="6.78" r="1.5"/>
  <circle class="cls-1" cx="499.31" cy="6.78" r="1.5"/>
  <circle class="cls-1" cx="489.68" cy="1.36" r="1.5"/>
  <circle class="cls-1" cx="499.31" cy="1.36" r="1.5"/>
  <circle class="cls-1" cx="494.49" cy="9.79" r="1.5"/>
  <circle class="cls-1" cx="504.12" cy="9.79" r="1.5"/>
  <circle class="cls-1" cx="494.49" cy="4.37" r="1.5"/>
  <circle class="cls-1" cx="504.12" cy="4.37" r="1.5"/>
  <circle class="cls-1" cx="520.36" cy="17.01" r="1.5"/>
  <circle class="cls-1" cx="529.99" cy="17.01" r="1.5"/>
  <circle class="cls-1" cx="525.18" cy="20.01" r="1.5"/>
  <circle class="cls-1" cx="534.81" cy="20.01" r="1.5"/>
  <circle class="cls-1" cx="520.36" cy="11.59" r="1.5"/>
  <circle class="cls-1" cx="529.99" cy="11.59" r="1.5"/>
  <circle class="cls-1" cx="525.18" cy="14.6" r="1.5"/>
  <circle class="cls-1" cx="534.81" cy="14.6" r="1.5"/>
  <circle class="cls-1" cx="520.36" cy="6.78" r="1.5"/>
  <circle class="cls-1" cx="529.99" cy="6.78" r="1.5"/>
  <circle class="cls-1" cx="520.36" cy="1.36" r="1.5"/>
  <circle class="cls-1" cx="529.99" cy="1.36" r="1.5"/>
  <circle class="cls-1" cx="525.18" cy="9.79" r="1.5"/>
  <circle class="cls-1" cx="534.81" cy="9.79" r="1.5"/>
  <circle class="cls-1" cx="525.18" cy="4.37" r="1.5"/>
  <circle class="cls-1" cx="534.81" cy="4.37" r="1.5"/>
  <circle class="cls-1" cx="551.05" cy="17.01" r="1.5"/>
  <circle class="cls-1" cx="560.68" cy="17.01" r="1.5"/>
  <circle class="cls-1" cx="555.86" cy="20.01" r="1.5"/>
  <circle class="cls-1" cx="565.49" cy="20.01" r="1.5"/>
  <circle class="cls-1" cx="551.05" cy="11.59" r="1.5"/>
  <circle class="cls-1" cx="560.68" cy="11.59" r="1.5"/>
  <circle class="cls-1" cx="555.86" cy="14.6" r="1.5"/>
  <circle class="cls-1" cx="565.49" cy="14.6" r="1.5"/>
  <circle class="cls-1" cx="551.05" cy="6.78" r="1.5"/>
  <circle class="cls-1" cx="560.68" cy="6.78" r="1.5"/>
  <circle class="cls-1" cx="551.05" cy="1.36" r="1.5"/>
  <circle class="cls-1" cx="560.68" cy="1.36" r="1.5"/>
  <circle class="cls-1" cx="555.86" cy="9.79" r="1.5"/>
  <circle class="cls-1" cx="565.49" cy="9.79" r="1.5"/>
  <circle class="cls-1" cx="555.86" cy="4.37" r="1.5"/>
  <circle class="cls-1" cx="565.49" cy="4.37" r="1.5"/>
  <circle class="cls-1" cx="581.74" cy="17.01" r="1.5"/>
  <circle class="cls-1" cx="591.36" cy="17.01" r="1.5"/>
  <circle class="cls-1" cx="586.55" cy="20.01" r="1.5"/>
  <circle class="cls-1" cx="596.18" cy="20.01" r="1.5"/>
  <circle class="cls-1" cx="581.74" cy="11.59" r="1.5"/>
  <circle class="cls-1" cx="591.36" cy="11.59" r="1.5"/>
  <circle class="cls-1" cx="586.55" cy="14.6" r="1.5"/>
  <circle class="cls-1" cx="596.18" cy="14.6" r="1.5"/>
  <circle class="cls-1" cx="581.74" cy="6.78" r="1.5"/>
  <circle class="cls-1" cx="591.36" cy="6.78" r="1.5"/>
  <circle class="cls-1" cx="581.74" cy="1.36" r="1.5"/>
  <circle class="cls-1" cx="591.36" cy="1.36" r="1.5"/>
  <circle class="cls-1" cx="586.55" cy="9.79" r="1.5"/>
  <circle class="cls-1" cx="596.18" cy="9.79" r="1.5"/>
  <circle class="cls-1" cx="586.55" cy="4.37" r="1.5"/>
  <circle class="cls-1" cx="596.18" cy="4.37" r="1.5"/>
  <circle class="cls-1" cx="612.42" cy="17.01" r="1.5"/>
  <circle class="cls-1" cx="622.05" cy="17.01" r="1.5"/>
  <circle class="cls-1" cx="617.24" cy="20.01" r="1.5"/>
  <circle class="cls-1" cx="626.86" cy="20.01" r="1.5"/>
  <circle class="cls-1" cx="612.42" cy="11.59" r="1.5"/>
  <circle class="cls-1" cx="622.05" cy="11.59" r="1.5"/>
  <circle class="cls-1" cx="617.24" cy="14.6" r="1.5"/>
  <circle class="cls-1" cx="626.86" cy="14.6" r="1.5"/>
  <circle class="cls-1" cx="612.42" cy="6.78" r="1.5"/>
  <circle class="cls-1" cx="622.05" cy="6.78" r="1.5"/>
  <circle class="cls-1" cx="612.42" cy="1.36" r="1.5"/>
  <circle class="cls-1" cx="622.05" cy="1.36" r="1.5"/>
  <circle class="cls-1" cx="617.24" cy="9.79" r="1.5"/>
  <circle class="cls-1" cx="626.86" cy="9.79" r="1.5"/>
  <circle class="cls-1" cx="617.24" cy="4.37" r="1.5"/>
  <circle class="cls-1" cx="626.86" cy="4.37" r="1.5"/>
  <circle class="cls-1" cx="643.11" cy="17.01" r="1.5"/>
  <circle class="cls-1" cx="652.74" cy="17.01" r="1.5"/>
  <circle class="cls-1" cx="647.92" cy="20.01" r="1.5"/>
  <circle class="cls-1" cx="657.55" cy="20.01" r="1.5"/>
  <circle class="cls-1" cx="643.11" cy="11.59" r="1.5"/>
  <circle class="cls-1" cx="652.74" cy="11.59" r="1.5"/>
  <circle class="cls-1" cx="647.92" cy="14.6" r="1.5"/>
  <circle class="cls-1" cx="657.55" cy="14.6" r="1.5"/>
  <circle class="cls-1" cx="643.11" cy="6.78" r="1.5"/>
  <circle class="cls-1" cx="652.74" cy="6.78" r="1.5"/>
  <circle class="cls-1" cx="643.11" cy="1.36" r="1.5"/>
  <circle class="cls-1" cx="652.74" cy="1.36" r="1.5"/>
  <circle class="cls-1" cx="647.92" cy="9.79" r="1.5"/>
  <circle class="cls-1" cx="657.55" cy="9.79" r="1.5"/>
  <circle class="cls-1" cx="647.92" cy="4.37" r="1.5"/>
  <circle class="cls-1" cx="657.55" cy="4.37" r="1.5"/>
  <circle class="cls-1" cx="673.8" cy="17.01" r="1.5"/>
  <circle class="cls-1" cx="683.42" cy="17.01" r="1.5"/>
  <circle class="cls-1" cx="678.61" cy="20.01" r="1.5"/>
  <circle class="cls-1" cx="688.24" cy="20.01" r="1.5"/>
  <circle class="cls-1" cx="673.8" cy="11.59" r="1.5"/>
  <circle class="cls-1" cx="683.42" cy="11.59" r="1.5"/>
  <circle class="cls-1" cx="678.61" cy="14.6" r="1.5"/>
  <circle class="cls-1" cx="688.24" cy="14.6" r="1.5"/>
  <circle class="cls-1" cx="673.8" cy="6.78" r="1.5"/>
  <circle class="cls-1" cx="683.42" cy="6.78" r="1.5"/>
  <circle class="cls-1" cx="673.8" cy="1.36" r="1.5"/>
  <circle class="cls-1" cx="683.42" cy="1.36" r="1.5"/>
  <circle class="cls-1" cx="678.61" cy="9.79" r="1.5"/>
  <circle class="cls-1" cx="688.24" cy="9.79" r="1.5"/>
  <circle class="cls-1" cx="678.61" cy="4.37" r="1.5"/>
  <circle class="cls-1" cx="688.24" cy="4.37" r="1.5"/>
  <circle class="cls-1" cx="704.48" cy="17.01" r="1.5"/>
  <circle class="cls-1" cx="714.11" cy="17.01" r="1.5"/>
  <circle class="cls-1" cx="709.3" cy="20.01" r="1.5"/>
  <circle class="cls-1" cx="718.92" cy="20.01" r="1.5"/>
  <circle class="cls-1" cx="704.48" cy="11.59" r="1.5"/>
  <circle class="cls-1" cx="714.11" cy="11.59" r="1.5"/>
  <circle class="cls-1" cx="709.3" cy="14.6" r="1.5"/>
  <circle class="cls-1" cx="718.92" cy="14.6" r="1.5"/>
  <circle class="cls-1" cx="704.48" cy="6.78" r="1.5"/>
  <circle class="cls-1" cx="714.11" cy="6.78" r="1.5"/>
  <circle class="cls-1" cx="704.48" cy="1.36" r="1.5"/>
  <circle class="cls-1" cx="714.11" cy="1.36" r="1.5"/>
  <circle class="cls-1" cx="709.3" cy="9.79" r="1.5"/>
  <circle class="cls-1" cx="718.92" cy="9.79" r="1.5"/>
  <circle class="cls-1" cx="709.3" cy="4.37" r="1.5"/>
  <circle class="cls-1" cx="718.92" cy="4.37" r="1.5"/>
  <circle class="cls-1" cx="731.93" cy="17.01" r="1.5"/>
  <circle class="cls-1" cx="741.56" cy="17.01" r="1.5"/>
  <circle class="cls-1" cx="736.75" cy="20.01" r="1.5"/>
  <circle class="cls-1" cx="746.37" cy="20.01" r="1.5"/>
  <circle class="cls-1" cx="731.93" cy="11.59" r="1.5"/>
  <circle class="cls-1" cx="741.56" cy="11.59" r="1.5"/>
  <circle class="cls-1" cx="736.75" cy="14.6" r="1.5"/>
  <circle class="cls-1" cx="746.37" cy="14.6" r="1.5"/>
  <circle class="cls-1" cx="731.93" cy="6.78" r="1.5"/>
  <circle class="cls-1" cx="741.56" cy="6.78" r="1.5"/>
  <circle class="cls-1" cx="731.93" cy="1.36" r="1.5"/>
  <circle class="cls-1" cx="741.56" cy="1.36" r="1.5"/>
  <circle class="cls-1" cx="736.75" cy="9.79" r="1.5"/>
  <circle class="cls-1" cx="746.37" cy="9.79" r="1.5"/>
  <circle class="cls-1" cx="736.75" cy="4.37" r="1.5"/>
  <circle class="cls-1" cx="746.37" cy="4.37" r="1.5"/>
  <circle class="cls-1" cx="762.62" cy="17.01" r="1.5"/>
  <circle class="cls-1" cx="772.25" cy="17.01" r="1.5"/>
  <circle class="cls-1" cx="767.43" cy="20.01" r="1.5"/>
  <circle class="cls-1" cx="777.06" cy="20.01" r="1.5"/>
  <circle class="cls-1" cx="762.62" cy="11.59" r="1.5"/>
  <circle class="cls-1" cx="772.25" cy="11.59" r="1.5"/>
  <circle class="cls-1" cx="767.43" cy="14.6" r="1.5"/>
  <circle class="cls-1" cx="777.06" cy="14.6" r="1.5"/>
  <circle class="cls-1" cx="762.62" cy="6.78" r="1.5"/>
  <circle class="cls-1" cx="772.25" cy="6.78" r="1.5"/>
  <circle class="cls-1" cx="762.62" cy="1.36" r="1.5"/>
  <circle class="cls-1" cx="772.25" cy="1.36" r="1.5"/>
  <circle class="cls-1" cx="767.43" cy="9.79" r="1.5"/>
  <circle class="cls-1" cx="777.06" cy="9.79" r="1.5"/>
  <circle class="cls-1" cx="767.43" cy="4.37" r="1.5"/>
  <circle class="cls-1" cx="777.06" cy="4.37" r="1.5"/>
  <circle class="cls-1" cx="793.31" cy="17.01" r="1.5"/>
  <circle class="cls-1" cx="802.93" cy="17.01" r="1.5"/>
  <circle class="cls-1" cx="798.12" cy="20.01" r="1.5"/>
  <circle class="cls-1" cx="807.75" cy="20.01" r="1.5"/>
  <circle class="cls-1" cx="793.31" cy="11.59" r="1.5"/>
  <circle class="cls-1" cx="802.93" cy="11.59" r="1.5"/>
  <circle class="cls-1" cx="798.12" cy="14.6" r="1.5"/>
  <circle class="cls-1" cx="807.75" cy="14.6" r="1.5"/>
  <circle class="cls-1" cx="793.31" cy="6.78" r="1.5"/>
  <circle class="cls-1" cx="802.93" cy="6.78" r="1.5"/>
  <circle class="cls-1" cx="793.31" cy="1.36" r="1.5"/>
  <circle class="cls-1" cx="802.93" cy="1.36" r="1.5"/>
  <circle class="cls-1" cx="798.12" cy="9.79" r="1.5"/>
  <circle class="cls-1" cx="807.75" cy="9.79" r="1.5"/>
  <circle class="cls-1" cx="798.12" cy="4.37" r="1.5"/>
  <circle class="cls-1" cx="807.75" cy="4.37" r="1.5"/>
  <circle class="cls-1" cx="823.99" cy="17.01" r="1.5"/>
  <circle class="cls-1" cx="833.62" cy="17.01" r="1.5"/>
  <circle class="cls-1" cx="828.81" cy="20.01" r="1.5"/>
  <circle class="cls-1" cx="838.43" cy="20.01" r="1.5"/>
  <circle class="cls-1" cx="823.99" cy="11.59" r="1.5"/>
  <circle class="cls-1" cx="833.62" cy="11.59" r="1.5"/>
  <circle class="cls-1" cx="828.81" cy="14.6" r="1.5"/>
  <circle class="cls-1" cx="838.43" cy="14.6" r="1.5"/>
  <circle class="cls-1" cx="823.99" cy="6.78" r="1.5"/>
  <circle class="cls-1" cx="833.62" cy="6.78" r="1.5"/>
  <circle class="cls-1" cx="823.99" cy="1.36" r="1.5"/>
  <circle class="cls-1" cx="833.62" cy="1.36" r="1.5"/>
  <circle class="cls-1" cx="828.81" cy="9.79" r="1.5"/>
  <circle class="cls-1" cx="838.43" cy="9.79" r="1.5"/>
  <circle class="cls-1" cx="828.81" cy="4.37" r="1.5"/>
  <circle class="cls-1" cx="838.43" cy="4.37" r="1.5"/>
  <circle class="cls-1" cx="854.68" cy="17.01" r="1.5"/>
  <circle class="cls-1" cx="864.31" cy="17.01" r="1.5"/>
  <circle class="cls-1" cx="859.49" cy="20.01" r="1.5"/>
  <circle class="cls-1" cx="869.12" cy="20.01" r="1.5"/>
  <circle class="cls-1" cx="854.68" cy="11.59" r="1.5"/>
  <circle class="cls-1" cx="864.31" cy="11.59" r="1.5"/>
  <circle class="cls-1" cx="859.49" cy="14.6" r="1.5"/>
  <circle class="cls-1" cx="869.12" cy="14.6" r="1.5"/>
  <circle class="cls-1" cx="854.68" cy="6.78" r="1.5"/>
  <circle class="cls-1" cx="864.31" cy="6.78" r="1.5"/>
  <circle class="cls-1" cx="854.68" cy="1.36" r="1.5"/>
  <circle class="cls-1" cx="864.31" cy="1.36" r="1.5"/>
  <circle class="cls-1" cx="859.49" cy="9.79" r="1.5"/>
  <circle class="cls-1" cx="869.12" cy="9.79" r="1.5"/>
  <circle class="cls-1" cx="859.49" cy="4.37" r="1.5"/>
  <circle class="cls-1" cx="869.12" cy="4.37" r="1.5"/>
  <circle class="cls-1" cx="885.36" cy="17.01" r="1.5"/>
  <circle class="cls-1" cx="894.99" cy="17.01" r="1.5"/>
  <circle class="cls-1" cx="890.18" cy="20.01" r="1.5"/>
  <circle class="cls-1" cx="899.81" cy="20.01" r="1.5"/>
  <circle class="cls-1" cx="885.36" cy="11.59" r="1.5"/>
  <circle class="cls-1" cx="894.99" cy="11.59" r="1.5"/>
  <circle class="cls-1" cx="890.18" cy="14.6" r="1.5"/>
  <circle class="cls-1" cx="899.81" cy="14.6" r="1.5"/>
  <circle class="cls-1" cx="885.36" cy="6.78" r="1.5"/>
  <circle class="cls-1" cx="894.99" cy="6.78" r="1.5"/>
  <circle class="cls-1" cx="885.36" cy="1.36" r="1.5"/>
  <circle class="cls-1" cx="894.99" cy="1.36" r="1.5"/>
  <circle class="cls-1" cx="890.18" cy="9.79" r="1.5"/>
  <circle class="cls-1" cx="899.81" cy="9.79" r="1.5"/>
  <circle class="cls-1" cx="890.18" cy="4.37" r="1.5"/>
  <circle class="cls-1" cx="899.81" cy="4.37" r="1.5"/>
  <circle class="cls-1" cx="916.05" cy="17.01" r="1.5"/>
  <circle class="cls-1" cx="925.68" cy="17.01" r="1.5"/>
  <circle class="cls-1" cx="920.86" cy="20.01" r="1.5"/>
  <circle class="cls-1" cx="930.49" cy="20.01" r="1.5"/>
  <circle class="cls-1" cx="916.05" cy="11.59" r="1.5"/>
  <circle class="cls-1" cx="925.68" cy="11.59" r="1.5"/>
  <circle class="cls-1" cx="920.86" cy="14.6" r="1.5"/>
  <circle class="cls-1" cx="930.49" cy="14.6" r="1.5"/>
  <circle class="cls-1" cx="916.05" cy="6.78" r="1.5"/>
  <circle class="cls-1" cx="925.68" cy="6.78" r="1.5"/>
  <circle class="cls-1" cx="916.05" cy="1.36" r="1.5"/>
  <circle class="cls-1" cx="925.68" cy="1.36" r="1.5"/>
  <circle class="cls-1" cx="920.86" cy="9.79" r="1.5"/>
  <circle class="cls-1" cx="930.49" cy="9.79" r="1.5"/>
  <circle class="cls-1" cx="920.86" cy="4.37" r="1.5"/>
  <circle class="cls-1" cx="930.49" cy="4.37" r="1.5"/>
  <circle class="cls-1" cx="946.74" cy="17.01" r="1.5"/>
  <circle class="cls-1" cx="956.36" cy="17.01" r="1.5"/>
  <circle class="cls-1" cx="951.55" cy="20.01" r="1.5"/>
  <circle class="cls-1" cx="961.18" cy="20.01" r="1.5"/>
  <circle class="cls-1" cx="946.74" cy="11.59" r="1.5"/>
  <circle class="cls-1" cx="956.36" cy="11.59" r="1.5"/>
  <circle class="cls-1" cx="951.55" cy="14.6" r="1.5"/>
  <circle class="cls-1" cx="961.18" cy="14.6" r="1.5"/>
  <circle class="cls-1" cx="946.74" cy="6.78" r="1.5"/>
  <circle class="cls-1" cx="956.36" cy="6.78" r="1.5"/>
  <circle class="cls-1" cx="946.74" cy="1.36" r="1.5"/>
  <circle class="cls-1" cx="956.36" cy="1.36" r="1.5"/>
  <circle class="cls-1" cx="951.55" cy="9.79" r="1.5"/>
  <circle class="cls-1" cx="961.18" cy="9.79" r="1.5"/>
  <circle class="cls-1" cx="951.55" cy="4.37" r="1.5"/>
  <circle class="cls-1" cx="961.18" cy="4.37" r="1.5"/>
  <circle class="cls-1" cx="977.42" cy="17.01" r="1.5"/>
  <circle class="cls-1" cx="987.05" cy="17.01" r="1.5"/>
  <circle class="cls-1" cx="982.24" cy="20.01" r="1.5"/>
  <circle class="cls-1" cx="991.86" cy="20.01" r="1.5"/>
  <circle class="cls-1" cx="977.42" cy="11.59" r="1.5"/>
  <circle class="cls-1" cx="987.05" cy="11.59" r="1.5"/>
  <circle class="cls-1" cx="982.24" cy="14.6" r="1.5"/>
  <circle class="cls-1" cx="991.86" cy="14.6" r="1.5"/>
  <circle class="cls-1" cx="977.42" cy="6.78" r="1.5"/>
  <circle class="cls-1" cx="987.05" cy="6.78" r="1.5"/>
  <circle class="cls-1" cx="977.42" cy="1.36" r="1.5"/>
  <circle class="cls-1" cx="987.05" cy="1.36" r="1.5"/>
  <circle class="cls-1" cx="982.24" cy="9.79" r="1.5"/>
  <circle class="cls-1" cx="991.86" cy="9.79" r="1.5"/>
  <circle class="cls-1" cx="982.24" cy="4.37" r="1.5"/>
  <circle class="cls-1" cx="991.86" cy="4.37" r="1.5"/>
  <circle class="cls-1" cx="1008.11" cy="17.01" r="1.5"/>
  <circle class="cls-1" cx="1017.74" cy="17.01" r="1.5"/>
  <circle class="cls-1" cx="1012.93" cy="20.01" r="1.5"/>
  <circle class="cls-1" cx="1022.55" cy="20.01" r="1.5"/>
  <circle class="cls-1" cx="1008.11" cy="11.59" r="1.5"/>
  <circle class="cls-1" cx="1017.74" cy="11.59" r="1.5"/>
  <circle class="cls-1" cx="1012.93" cy="14.6" r="1.5"/>
  <circle class="cls-1" cx="1022.55" cy="14.6" r="1.5"/>
  <circle class="cls-1" cx="1008.11" cy="6.78" r="1.5"/>
  <circle class="cls-1" cx="1017.74" cy="6.78" r="1.5"/>
  <circle class="cls-1" cx="1008.11" cy="1.36" r="1.5"/>
  <circle class="cls-1" cx="1017.74" cy="1.36" r="1.5"/>
  <circle class="cls-1" cx="1012.93" cy="9.79" r="1.5"/>
  <circle class="cls-1" cx="1022.55" cy="9.79" r="1.5"/>
  <circle class="cls-1" cx="1012.93" cy="4.37" r="1.5"/>
  <circle class="cls-1" cx="1022.55" cy="4.37" r="1.5"/>
  <circle class="cls-1" cx="1038.8" cy="17.01" r="1.5"/>
  <circle class="cls-1" cx="1048.43" cy="17.01" r="1.5"/>
  <circle class="cls-1" cx="1043.61" cy="20.01" r="1.5"/>
  <circle class="cls-1" cx="1053.24" cy="20.01" r="1.5"/>
  <circle class="cls-1" cx="1038.8" cy="11.59" r="1.5"/>
  <circle class="cls-1" cx="1048.43" cy="11.59" r="1.5"/>
  <circle class="cls-1" cx="1043.61" cy="14.6" r="1.5"/>
  <circle class="cls-1" cx="1053.24" cy="14.6" r="1.5"/>
  <circle class="cls-1" cx="1038.8" cy="6.78" r="1.5"/>
  <circle class="cls-1" cx="1048.43" cy="6.78" r="1.5"/>
  <circle class="cls-1" cx="1038.8" cy="1.36" r="1.5"/>
  <circle class="cls-1" cx="1048.43" cy="1.36" r="1.5"/>
  <circle class="cls-1" cx="1043.61" cy="9.79" r="1.5"/>
  <circle class="cls-1" cx="1053.24" cy="9.79" r="1.5"/>
  <circle class="cls-1" cx="1043.61" cy="4.37" r="1.5"/>
  <circle class="cls-1" cx="1053.24" cy="4.37" r="1.5"/>
  <circle class="cls-1" cx="1069.49" cy="17.01" r="1.5"/>
  <circle class="cls-1" cx="1079.11" cy="17.01" r="1.5"/>
  <circle class="cls-1" cx="1074.3" cy="20.01" r="1.5"/>
  <circle class="cls-1" cx="1083.93" cy="20.01" r="1.5"/>
  <circle class="cls-1" cx="1069.49" cy="11.59" r="1.5"/>
  <circle class="cls-1" cx="1079.11" cy="11.59" r="1.5"/>
  <circle class="cls-1" cx="1074.3" cy="14.6" r="1.5"/>
  <circle class="cls-1" cx="1083.93" cy="14.6" r="1.5"/>
  <circle class="cls-1" cx="1069.49" cy="6.78" r="1.5"/>
  <circle class="cls-1" cx="1079.11" cy="6.78" r="1.5"/>
  <circle class="cls-1" cx="1069.49" cy="1.36" r="1.5"/>
  <circle class="cls-1" cx="1079.11" cy="1.36" r="1.5"/>
  <circle class="cls-1" cx="1074.3" cy="9.79" r="1.5"/>
  <circle class="cls-1" cx="1083.93" cy="9.79" r="1.5"/>
  <circle class="cls-1" cx="1074.3" cy="4.37" r="1.5"/>
  <circle class="cls-1" cx="1083.93" cy="4.37" r="1.5"/>
  <circle class="cls-1" cx="1096.93" cy="17.01" r="1.5"/>
  <circle class="cls-1" cx="1106.56" cy="17.01" r="1.5"/>
  <circle class="cls-1" cx="1101.75" cy="20.01" r="1.5"/>
  <circle class="cls-1" cx="1111.37" cy="20.01" r="1.5"/>
  <circle class="cls-1" cx="1096.93" cy="11.59" r="1.5"/>
  <circle class="cls-1" cx="1106.56" cy="11.59" r="1.5"/>
  <circle class="cls-1" cx="1101.75" cy="14.6" r="1.5"/>
  <circle class="cls-1" cx="1111.37" cy="14.6" r="1.5"/>
  <circle class="cls-1" cx="1096.93" cy="6.78" r="1.5"/>
  <circle class="cls-1" cx="1106.56" cy="6.78" r="1.5"/>
  <circle class="cls-1" cx="1096.93" cy="1.36" r="1.5"/>
  <circle class="cls-1" cx="1106.56" cy="1.36" r="1.5"/>
  <circle class="cls-1" cx="1101.75" cy="9.79" r="1.5"/>
  <circle class="cls-1" cx="1111.37" cy="9.79" r="1.5"/>
  <circle class="cls-1" cx="1101.75" cy="4.37" r="1.5"/>
  <circle class="cls-1" cx="1111.37" cy="4.37" r="1.5"/>
  <circle class="cls-1" cx="1127.62" cy="17.01" r="1.5"/>
  <circle class="cls-1" cx="1137.25" cy="17.01" r="1.5"/>
  <circle class="cls-1" cx="1132.43" cy="20.01" r="1.5"/>
  <circle class="cls-1" cx="1142.06" cy="20.01" r="1.5"/>
  <circle class="cls-1" cx="1127.62" cy="11.59" r="1.5"/>
  <circle class="cls-1" cx="1137.25" cy="11.59" r="1.5"/>
  <circle class="cls-1" cx="1132.43" cy="14.6" r="1.5"/>
  <circle class="cls-1" cx="1142.06" cy="14.6" r="1.5"/>
  <circle class="cls-1" cx="1127.62" cy="6.78" r="1.5"/>
  <circle class="cls-1" cx="1137.25" cy="6.78" r="1.5"/>
  <circle class="cls-1" cx="1127.62" cy="1.36" r="1.5"/>
  <circle class="cls-1" cx="1137.25" cy="1.36" r="1.5"/>
  <circle class="cls-1" cx="1132.43" cy="9.79" r="1.5"/>
  <circle class="cls-1" cx="1142.06" cy="9.79" r="1.5"/>
  <circle class="cls-1" cx="1132.43" cy="4.37" r="1.5"/>
  <circle class="cls-1" cx="1142.06" cy="4.37" r="1.5"/>
  <circle class="cls-1" cx="1158.31" cy="17.01" r="1.5"/>
  <circle class="cls-1" cx="1167.93" cy="17.01" r="1.5"/>
  <circle class="cls-1" cx="1163.12" cy="20.01" r="1.5"/>
  <circle class="cls-1" cx="1172.75" cy="20.01" r="1.5"/>
  <circle class="cls-1" cx="1158.31" cy="11.59" r="1.5"/>
  <circle class="cls-1" cx="1167.93" cy="11.59" r="1.5"/>
  <circle class="cls-1" cx="1163.12" cy="14.6" r="1.5"/>
  <circle class="cls-1" cx="1172.75" cy="14.6" r="1.5"/>
  <circle class="cls-1" cx="1158.31" cy="6.78" r="1.5"/>
  <circle class="cls-1" cx="1167.93" cy="6.78" r="1.5"/>
  <circle class="cls-1" cx="1158.31" cy="1.36" r="1.5"/>
  <circle class="cls-1" cx="1167.93" cy="1.36" r="1.5"/>
  <circle class="cls-1" cx="1163.12" cy="9.79" r="1.5"/>
  <circle class="cls-1" cx="1172.75" cy="9.79" r="1.5"/>
  <circle class="cls-1" cx="1163.12" cy="4.37" r="1.5"/>
  <circle class="cls-1" cx="1172.75" cy="4.37" r="1.5"/>
  <circle class="cls-1" cx="1188.99" cy="17.01" r="1.5"/>
  <circle class="cls-1" cx="1198.62" cy="17.01" r="1.5"/>
  <circle class="cls-1" cx="1193.81" cy="20.01" r="1.5"/>
  <circle class="cls-1" cx="1203.43" cy="20.01" r="1.5"/>
  <circle class="cls-1" cx="1188.99" cy="11.59" r="1.5"/>
  <circle class="cls-1" cx="1198.62" cy="11.59" r="1.5"/>
  <circle class="cls-1" cx="1193.81" cy="14.6" r="1.5"/>
  <circle class="cls-1" cx="1203.43" cy="14.6" r="1.5"/>
  <circle class="cls-1" cx="1188.99" cy="6.78" r="1.5"/>
  <circle class="cls-1" cx="1198.62" cy="6.78" r="1.5"/>
  <circle class="cls-1" cx="1188.99" cy="1.36" r="1.5"/>
  <circle class="cls-1" cx="1198.62" cy="1.36" r="1.5"/>
  <circle class="cls-1" cx="1193.81" cy="9.79" r="1.5"/>
  <circle class="cls-1" cx="1203.43" cy="9.79" r="1.5"/>
  <circle class="cls-1" cx="1193.81" cy="4.37" r="1.5"/>
  <circle class="cls-1" cx="1203.43" cy="4.37" r="1.5"/>
  <circle class="cls-1" cx="1219.68" cy="17.01" r="1.5"/>
  <circle class="cls-1" cx="1229.31" cy="17.01" r="1.5"/>
  <circle class="cls-1" cx="1224.49" cy="20.01" r="1.5"/>
  <circle class="cls-1" cx="1234.12" cy="20.01" r="1.5"/>
  <circle class="cls-1" cx="1219.68" cy="11.59" r="1.5"/>
  <circle class="cls-1" cx="1229.31" cy="11.59" r="1.5"/>
  <circle class="cls-1" cx="1224.49" cy="14.6" r="1.5"/>
  <circle class="cls-1" cx="1234.12" cy="14.6" r="1.5"/>
  <circle class="cls-1" cx="1219.68" cy="6.78" r="1.5"/>
  <circle class="cls-1" cx="1229.31" cy="6.78" r="1.5"/>
  <circle class="cls-1" cx="1219.68" cy="1.36" r="1.5"/>
  <circle class="cls-1" cx="1229.31" cy="1.36" r="1.5"/>
  <circle class="cls-1" cx="1224.49" cy="9.79" r="1.5"/>
  <circle class="cls-1" cx="1234.12" cy="9.79" r="1.5"/>
  <circle class="cls-1" cx="1224.49" cy="4.37" r="1.5"/>
  <circle class="cls-1" cx="1234.12" cy="4.37" r="1.5"/>
</svg>